<svg width="24" height="25" viewBox="0 0 24 25" fill="none" xmlns="http://www.w3.org/2000/svg">
<path fill-rule="evenodd" clip-rule="evenodd" d="M8.84495 8.405C8.98558 8.54545 9.1762 8.62434 9.37495 8.62434C9.5737 8.62434 9.76432 8.54545 9.90495 8.405L11.625 6.685V14.875C11.625 15.0739 11.704 15.2647 11.8446 15.4053C11.9853 15.546 12.176 15.625 12.375 15.625C12.5739 15.625 12.7646 15.546 12.9053 15.4053C13.0459 15.2647 13.125 15.0739 13.125 14.875V6.685L14.845 8.405C14.9136 8.47868 14.9964 8.53779 15.0884 8.57878C15.1804 8.61977 15.2797 8.64181 15.3804 8.64359C15.4811 8.64536 15.5812 8.62684 15.6745 8.58912C15.7679 8.5514 15.8528 8.49525 15.924 8.42403C15.9952 8.35282 16.0514 8.26798 16.0891 8.17459C16.1268 8.08121 16.1453 7.98118 16.1435 7.88047C16.1418 7.77977 16.1197 7.68046 16.0787 7.58846C16.0377 7.49646 15.9786 7.41366 15.905 7.345L12.905 4.345C12.7643 4.20455 12.5737 4.12566 12.375 4.12566C12.1762 4.12566 11.9856 4.20455 11.845 4.345L8.84495 7.345C8.7045 7.48562 8.62561 7.67625 8.62561 7.875C8.62561 8.07375 8.7045 8.26437 8.84495 8.405Z" fill="#9C9C9C"/>
<path d="M12.375 20.875C14.4967 20.875 16.5316 20.0321 18.0319 18.5319C19.5321 17.0316 20.375 14.9967 20.375 12.875H16.625C15.682 12.875 15.211 12.875 14.918 13.168C14.625 13.461 14.625 13.932 14.625 14.875C14.625 15.4717 14.3879 16.044 13.966 16.466C13.544 16.8879 12.9717 17.125 12.375 17.125C11.7783 17.125 11.206 16.8879 10.784 16.466C10.3621 16.044 10.125 15.4717 10.125 14.875C10.125 13.932 10.125 13.461 9.832 13.168C9.539 12.875 9.068 12.875 8.125 12.875H4.375C4.375 14.9967 5.21785 17.0316 6.71815 18.5319C8.21844 20.0321 10.2533 20.875 12.375 20.875Z" fill="#9C9C9C"/>
</svg>
