<svg width="24" height="25" viewBox="0 0 24 25" fill="none" xmlns="http://www.w3.org/2000/svg">
<path fill-rule="evenodd" clip-rule="evenodd" d="M15.9242 9.72C15.7836 9.57955 15.593 9.50066 15.3942 9.50066C15.1955 9.50066 15.0048 9.57955 14.8642 9.72L13.1442 11.44L13.1442 3.25C13.1442 3.05109 13.0652 2.86033 12.9245 2.71967C12.7839 2.57902 12.5931 2.5 12.3942 2.5C12.1953 2.5 12.0045 2.57902 11.8639 2.71967C11.7232 2.86033 11.6442 3.05109 11.6442 3.25L11.6442 11.44L9.92421 9.72C9.85555 9.64632 9.77275 9.58721 9.68075 9.54622C9.58875 9.50523 9.48944 9.48319 9.38874 9.48141C9.28803 9.47963 9.188 9.49816 9.09462 9.53588C9.00123 9.5736 8.9164 9.62975 8.84518 9.70096C8.77396 9.77218 8.71781 9.85702 8.68009 9.95041C8.64237 10.0438 8.62385 10.1438 8.62562 10.2445C8.6274 10.3452 8.64944 10.4445 8.69043 10.5365C8.73143 10.6285 8.79053 10.7113 8.86421 10.78L11.8642 13.78C12.0048 13.9205 12.1955 13.9993 12.3942 13.9993C12.593 13.9993 12.7836 13.9205 12.9242 13.78L15.9242 10.78C16.0647 10.6394 16.1436 10.4488 16.1436 10.25C16.1436 10.0513 16.0647 9.86063 15.9242 9.72Z" fill="#9C9C9C"/>
<path d="M12.375 20.875C14.4967 20.875 16.5316 20.0321 18.0319 18.5319C19.5321 17.0316 20.375 14.9967 20.375 12.875H16.625C15.682 12.875 15.211 12.875 14.918 13.168C14.625 13.461 14.625 13.932 14.625 14.875C14.625 15.4717 14.3879 16.044 13.966 16.466C13.544 16.8879 12.9717 17.125 12.375 17.125C11.7783 17.125 11.206 16.8879 10.784 16.466C10.3621 16.044 10.125 15.4717 10.125 14.875C10.125 13.932 10.125 13.461 9.832 13.168C9.539 12.875 9.068 12.875 8.125 12.875H4.375C4.375 14.9967 5.21785 17.0316 6.71815 18.5319C8.21844 20.0321 10.2533 20.875 12.375 20.875Z" fill="#9C9C9C"/>
</svg>
