<?xml version="1.0" encoding="utf-8"?><svg viewBox="0 0 28 27" xmlns="http://www.w3.org/2000/svg" xmlns:xlink="http://www.w3.org/1999/xlink"><style>:root>svg{display:none}:root>svg:target{display:block}</style><svg viewBox="0 0 28 27" id="next" xmlns="http://www.w3.org/2000/svg"><path d="M21.763 13.5l-6.951 6.952-1.584-1.584 5.368-5.368-5.368-5.368 1.584-1.584 6.951 6.952zm-6.328 0l-6.951 6.952L6.9 18.868l5.368-5.368L6.9 8.132l1.584-1.584 6.951 6.952z"/></svg><svg viewBox="0 0 28 27" id="prev" xmlns="http://www.w3.org/2000/svg"><path d="M6.236 13.5l6.952 6.952 1.584-1.584L9.404 13.5l5.368-5.368-1.584-1.584L6.236 13.5zm6.328 0l6.952 6.952 1.584-1.584-5.368-5.368L21.1 8.132l-1.584-1.584-6.952 6.952z"/></svg><svg viewBox="2 2 20 20.001" id="search" xmlns="http://www.w3.org/2000/svg"><path d="M21.707 20.293l-5.396-5.396A7.943 7.943 0 0018 10c0-4.411-3.589-8-8-8s-8 3.589-8 8 3.589 8 8 8a7.948 7.948 0 004.897-1.688l5.396 5.396a1 1 0 001.414-1.415zM4 10c0-3.309 2.691-6 6-6s6 2.691 6 6-2.691 6-6 6-6-2.691-6-6z" data-original="#000000"/></svg></svg>